<?xml version="1.0" encoding="utf-8"?>
<!-- Generator: Adobe Illustrator 23.0.1, SVG Export Plug-In . SVG Version: 6.00 Build 0)  -->
<svg version="1.1" id="Layer_1" xmlns="http://www.w3.org/2000/svg" xmlns:xlink="http://www.w3.org/1999/xlink" x="0px" y="0px"
	 viewBox="0 0 1456.7 539.9" style="enable-background:new 0 0 1456.7 539.9;" xml:space="preserve">
<style type="text/css">
	.st0{fill:#FFFFFF;}
	.st1{fill:#18B793;}
</style>
<g>
	<path class="st0" d="M862.7,270.3c0-7.9-0.9-15.9-2.5-23.6c-10.9-50.4-56.4-87-108-87c-51.7,0-97.1,36.6-108,87
		c-1.7,7.7-2.5,15.6-2.5,23.6c0,8,0.8,15.9,2.5,23.6c11,50.4,56.4,87,108,87c28.5,0,55.2-10.7,75.8-30.1l-29.7-29.6
		c-12.7,11.5-28.9,17.8-46.1,17.8c-28.2,0-53.2-16.9-63.7-43.1l-1.8-4.5h174.1C862,284.4,862.7,277.3,862.7,270.3z M686.6,249.3
		l1.8-4.5c10.5-26.2,35.5-43.1,63.7-43.1c28.2,0,53.2,16.9,63.7,43.1l1.8,4.5H686.6z"/>
	<path class="st0" d="M1114.3,270.3c0,8-0.9,15.9-2.5,23.6c-11,50.4-56.4,87-108,87c-61,0-110.6-49.6-110.6-110.6
		c0-60.9,49.6-110.5,110.6-110.5c28.4,0,55.2,10.7,75.8,30.1l-29.7,29.7c-12.6-11.5-28.9-17.8-46.1-17.8
		c-37.9,0-68.6,30.8-68.6,68.6c0,37.9,30.8,68.6,68.6,68.6c28.2,0,53.2-16.9,63.7-43.1l1.8-4.5h-62.2v-42h105.3
		C1113.7,256.2,1114.3,263.2,1114.3,270.3z"/>
	<path class="st0" d="M1327.8,159.7c-61,0-110.5,49.6-110.5,110.5c0,61,49.6,110.6,110.5,110.6c61,0,110.6-49.6,110.6-110.6
		C1438.4,209.3,1388.7,159.7,1327.8,159.7z M1327.8,338.9c-37.8,0-68.6-30.8-68.6-68.6c0-37.8,30.8-68.6,68.6-68.6
		c37.9,0,68.6,30.8,68.6,68.6C1396.4,308.1,1365.6,338.9,1327.8,338.9z"/>
	<rect x="1144.8" y="163.6" class="st0" width="41.9" height="213.3"/>
</g>
<path class="st1" d="M532.4,259.1C526.7,125.4,417.3,18.5,283.5,15.7c-71-1.5-140.3,27.1-189.5,78.6c-49.9,52.1-74.8,120.7-70.1,193
	c8.3,127.4,110.6,229.4,238,237.2c5.4,0.3,10.7,0.5,16,0.5c46.4,0,91.5-12.4,131.2-36.4c17.6-10.6,29.2-28.5,31.7-48.9
	c2.5-20.5-4.5-40.7-19.1-55.3c-21.6-21.6-55.1-25.6-81.3-9.9c-18.7,11.3-40.3,17.2-62.2,17.3c-0.1,0-0.1,0-0.2,0
	c-33.6,0-64.8-13.4-88-37.7c-23.2-24.4-35-56.4-33.3-90.1c3.1-61.1,53.4-111.6,114.5-114.9c33.9-1.8,65.8,9.9,90.2,33
	c19.4,18.3,31.9,41.7,36.3,67.4l-65,0.1c-8.4-22.1-29.7-37.8-54.7-37.8c-32.3,0-58.5,26.3-58.5,58.5s26.3,58.5,58.5,58.5
	c25,0,46.4-15.8,54.7-38l87.4-0.2c11.4,0,20.6-9.3,20.6-20.7c-0.1-36.6-12-71-34-99.3l35.9-35.9c28.5,34.6,46.4,78.3,48.5,126
	c1.5,34.7-5.1,68.1-19.6,99.2c-4.8,10.3-0.3,22.6,10,27.4c10.3,4.8,22.6,0.3,27.4-10C526.3,340.3,534.2,300.5,532.4,259.1z
	 M269,107.7c-82,4.4-149.4,72.1-153.5,154.1c-2.3,45.2,13.6,88,44.7,120.7c31,32.6,72.9,50.5,117.9,50.5c0.1,0,0.2,0,0.3,0
	c29.5-0.1,58.3-8.1,83.5-23.2c10-6,22.6-4.4,30.8,3.7c5.6,5.6,8.2,13.2,7.3,21c-0.9,7.8-5.3,14.5-12,18.5
	c-37.1,22.3-79.7,32.7-123.4,30c-106.7-6.6-192.4-91.9-199.3-198.6c-3.9-60.6,16.9-118.1,58.7-161.7c41.2-43.1,99.2-67.2,158.7-65.8
	c49.5,1,95,19.1,130.8,48.6l-35.9,35.9C346.7,117.5,308.8,105.6,269,107.7z"/>
</svg>
